<svg xmlns="http://www.w3.org/2000/svg" viewBox="0 0 24 24" fill="#000">
  <path d="M12 .5a11.5 11.5 0 0 0-3.64 22.42c.58.1.79-.25.79-.56v-2c-3.2.7-3.88-1.54-3.88-1.54-.53-1.34-1.29-1.7-1.29-1.7-1.05-.72.08-.7.08-.7 1.16.08 1.77 1.2 1.77 1.2 1.03 1.77 2.7 1.26 3.36.96.1-.75.4-1.26.73-1.55-2.55-.29-5.24-1.28-5.24-5.67 0-1.25.45-2.28 1.18-3.08-.12-.29-.51-1.46.11-3.05 0 0 .96-.31 3.15 1.18a10.9 10.9 0 0 1 5.74 0c2.18-1.49 3.14-1.18 3.14-1.18.63 1.59.24 2.76.12 3.05.74.8 1.18 1.83 1.18 3.08 0 4.4-2.69 5.37-5.25 5.66.41.36.78 1.05.78 2.12v3.15c0 .31.21.67.8.55A11.5 11.5 0 0 0 12 .5z"/>
</svg>
